<svg width="24" height="24" viewBox="0 0 26 21" fill="none" xmlns="http://www.w3.org/2000/svg">
<path d="M23.1479 19.0832L5.39282 1.32812M11.0744 8.36101C10.6324 8.84831 10.3642 9.48841 10.3642 10.1895C10.3642 11.7161 11.6361 12.9538 13.2051 12.9538C13.9285 12.9538 14.5887 12.6907 15.0902 12.2574M23.1939 12.9538C24.1718 11.4898 24.5683 10.2958 24.5683 10.2958C24.5683 10.2958 21.9825 2.03833 13.2051 2.03833C12.7123 2.03833 12.239 2.06435 11.7847 2.11348M19.5969 16.5377C17.9665 17.5778 15.8675 18.3133 13.2051 18.2697C4.53693 18.128 1.8418 10.2958 1.8418 10.2958C1.8418 10.2958 3.09395 6.29728 6.81323 3.86512" stroke="black" stroke-width="2.36735" stroke-linecap="round"/>
</svg>
